<svg xmlns="http://www.w3.org/2000/svg" xmlns:xlink="http://www.w3.org/1999/xlink" width="93" height="71" viewBox="0 0 93 71" fill="none"><defs><linearGradient id="linear_0" x1="75%" y1="25%" x2="76%" y2="75%" gradientUnits="objectBoundingBox"><stop offset="0" stop-color="#FA02A3" stop-opacity="1" /><stop offset="1" stop-color="#0526FF" stop-opacity="1" /></linearGradient></defs><path id="减去顶层" fill-rule="evenodd" fill="url(#linear_0)" transform="translate(0 -0.0000026347088857292533)  rotate(0 46.08365483577485 35.07802940218777)" opacity="1" d="M46.08 70.16C20.63 70.16 0 54.45 0 35.08C0 18.85 14.48 5.19 34.15 1.19C31.71 3.8 29.37 6.48 27.94 8.53C23.87 14.38 21.13 19.76 20.07 27.1C19.01 34.44 20.96 42.07 20.96 42.07C20.96 42.07 20.67 36.85 21.17 30.4C21.73 23.14 24.49 18.84 28.29 12.94C30.79 9.06 35.8 4.07 39.86 0.32C41.9 0.11 43.97 0 46.08 0C71.53 0 92.17 15.71 92.17 35.08C92.17 51.4 77.52 65.12 57.69 69.03C60.12 66.43 62.46 63.76 63.88 61.71C67.95 55.86 70.69 50.48 71.75 43.14C72.81 35.81 70.86 28.17 70.86 28.17C70.86 28.17 71.15 33.39 70.65 39.84C70.09 47.1 67.33 51.4 63.53 57.3C61.04 61.16 56.07 66.12 52.02 69.87C50.08 70.06 48.09 70.16 46.08 70.16ZM36.78 10.79C30.87 16.42 26.26 21.73 24.45 33.6C22.54 46.15 25.28 51.45 25.28 51.45L26.69 53.21C26.69 53.21 25.64 48.58 28.76 38.99C31.01 32.11 37.41 24.82 44.43 19.33C53.34 12.36 57.01 12.89 59.68 10.35C59.68 10.35 56.73 6.37 55.01 4.52C53.28 2.67 50.51 0.43 50.51 0.43C50.51 0.43 46.09 1.94 36.78 10.79ZM47.39 50.91C54.41 45.42 60.81 38.13 63.06 31.26C66.19 21.66 65.13 17.03 65.13 17.03L66.54 18.79C66.54 18.79 69.28 24.09 67.37 36.64C65.56 48.51 60.95 53.82 55.04 59.45C45.73 68.3 41.31 69.82 41.31 69.82C41.31 69.82 38.54 67.57 36.82 65.72C35.09 63.87 32.15 59.89 32.15 59.89C34.81 57.35 38.48 57.89 47.39 50.91Z" /></svg>